<?xml version="1.0" encoding="UTF-8" standalone="no"?>
<!-- Created with Inkscape (http://www.inkscape.org/) -->

<svg
   width="300mm"
   height="300mm"
   viewBox="0 0 300 300"
   version="1.1"
   id="svg5"
   inkscape:version="1.1.1 (3bf5ae0d25, 2021-09-20)"
   sodipodi:docname="us.svg"
   xmlns:inkscape="http://www.inkscape.org/namespaces/inkscape"
   xmlns:sodipodi="http://sodipodi.sourceforge.net/DTD/sodipodi-0.dtd"
   xmlns="http://www.w3.org/2000/svg"
   xmlns:svg="http://www.w3.org/2000/svg">
  <sodipodi:namedview
     id="namedview7"
     pagecolor="#ffffff"
     bordercolor="#666666"
     borderopacity="1.0"
     inkscape:pageshadow="2"
     inkscape:pageopacity="0.0"
     inkscape:pagecheckerboard="0"
     inkscape:document-units="mm"
     showgrid="false"
     inkscape:zoom="1.5554293"
     inkscape:cx="579.58276"
     inkscape:cy="568.6533"
     inkscape:window-width="3772"
     inkscape:window-height="2096"
     inkscape:window-x="68"
     inkscape:window-y="27"
     inkscape:window-maximized="1"
     inkscape:current-layer="layer2"
     units="mm" />
  <defs
     id="defs2" />
  <g
     inkscape:label="Layer 1"
     inkscape:groupmode="layer"
     id="layer1"
     style="display:inline" />
  <g
     inkscape:groupmode="layer"
     id="layer2"
     inkscape:label="b">
    <path
       id="rect1913-5"
       style="opacity:1;fill:#e7e6e7;fill-opacity:1;stroke:none;stroke-width:0.264583"
       d="m 61.472074,14.533336 a 46.938911,46.938911 0 0 0 -46.938736,46.938735 46.938911,46.938911 0 0 0 0.06615,1.773018 h -0.06615 V 240.62961 h 0.07855 a 46.938911,46.938911 0 0 0 46.860188,44.83705 46.938911,46.938911 0 0 0 2.848922,-0.10645 v 0.10645 H 238.41011 v -0.004 a 46.938911,46.938911 0 0 0 0.1173,0.004 46.938911,46.938911 0 0 0 46.93925,-46.93925 46.938911,46.938911 0 0 0 -0.007,-0.56017 h 0.007 V 60.583237 h -0.0119 a 46.938911,46.938911 0 0 0 -46.92737,-46.049901 46.938911,46.938911 0 0 0 -2.4138,0.09043 v -0.09043 H 62.024495 v 0.0072 a 46.938911,46.938911 0 0 0 -0.552421,-0.0072 z M 202.62366,90.437744 c 3.95002,0 7.74407,0.260059 11.38225,0.779799 3.74213,0.519739 7.692,1.61105 11.84992,3.274218 4.15792,1.559219 7.74403,3.63813 10.75852,6.236829 3.01449,2.49475 5.50929,6.02925 7.4843,10.60296 2.07896,4.46977 3.11867,9.66679 3.11867,15.59182 h -21.82916 c -0.83158,-11.85007 -8.78345,-17.77514 -23.85591,-17.77514 -6.02898,0 -10.81062,1.29977 -14.34486,3.89847 -3.53423,2.49475 -5.30148,5.87291 -5.30148,10.13478 0,4.15792 1.50719,7.27654 4.52169,9.3555 3.01449,1.97501 8.6795,3.79387 16.99534,5.45703 l 17.77514,3.43028 c 10.49875,2.07896 18.13896,5.61295 22.92057,10.60246 4.78161,4.88555 7.17269,11.79822 7.17269,20.73775 0,11.53823 -4.10622,20.58192 -12.31812,27.13064 -8.21189,6.44478 -19.64614,9.66711 -34.30281,9.66711 -14.55272,0 -25.88275,-3.22233 -33.99069,-9.66711 -8.004,-6.44477 -12.36976,-15.748 -13.09739,-27.90992 h 22.7645 c 0.41579,6.13293 2.80636,10.81035 7.17217,14.03273 4.36582,3.22239 10.49883,4.83382 18.39888,4.83382 7.06846,0 12.62976,-1.35137 16.68374,-4.05402 4.15791,-2.70265 6.23682,-6.44509 6.23682,-11.2267 0,-4.57371 -1.61091,-8.10771 -4.83329,-10.60246 -3.22239,-2.49475 -8.73209,-4.46994 -16.52819,-5.92522 l -15.90394,-3.11815 c -11.53823,-2.18291 -19.75015,-5.61319 -24.63571,-10.29085 -4.88555,-4.67766 -7.32823,-11.4345 -7.32823,-20.27008 0,-11.12244 3.74193,-19.69813 11.22619,-25.727105 7.5882,-6.132933 18.1912,-9.199441 31.80839,-9.199441 z M 48.728667,92.308949 h 23.388235 v 77.025271 c 0,13.51324 7.224323,20.27008 21.673097,20.27008 14.448771,0 21.673611,-6.75684 21.673611,-20.27008 V 92.308949 h 23.38823 v 77.025271 c 0,6.13293 -0.9876,11.64211 -2.96261,16.52767 -1.87106,4.78161 -4.31374,8.62777 -7.32823,11.53831 -3.01449,2.91055 -6.60112,5.30163 -10.75903,7.17269 -4.05397,1.87107 -8.05596,3.17032 -12.00599,3.89796 -3.84607,0.72763 -7.848062,1.0914 -12.005981,1.0914 -4.157922,0 -8.211508,-0.36377 -12.161533,-1.0914 -3.846076,-0.72764 -7.848065,-2.02689 -12.005985,-3.89796 -4.053972,-1.87106 -7.588477,-4.26214 -10.60297,-7.17269 -3.014493,-2.91054 -5.509287,-6.7567 -7.484298,-11.53831 -1.871064,-4.88556 -2.806546,-10.39474 -2.806546,-16.52767 z" />
  </g>
</svg>
